#!OML:ASF E:\emotionWalksFemale\Project 1\Capture day 1\Session 1\Female1.ASF
:FULLY-SPECIFIED
:DEGREES
675
root 8.70595 15.3984 9.49853 177.498 4.74378 186.499
lowerback -0.768896 5.42119 2.1045
upperback -3.71543 7.50206 -5.27597
thorax -2.43847 3.779 -6.70463
lowerneck -0.952168 -1.12955 -8.8243
upperneck 16.2058 -3.14959 8.49701
head 5.24782 -1.92836 3.95762
rclavicle 1.98785e-015 1.90833e-014
rhumerus -42.9007 23.1458 -80.7348
rradius 68.8975
rwrist 7.86168
rhand -2.78192 -60.3039
rfingers 7.12502
rthumb -157.077 91.0388
lclavicle 1.98785e-015 1.90833e-014
lhumerus -64.7327 13.4098 39.2799
lradius 42.3587
lwrist -9.30831
lhand -2.3835 -25.665
lfingers 7.12502
lthumb 23.3055 2.94435
rfemur 26.6689 0.772623 34.4107
rtibia 7.84135
rfoot 5.12465 -22.4245
rtoes 3.38861
lfemur -23.5875 -24.9616 -8.85314
ltibia 27.3728
lfoot -20.2361 23.1956
ltoes -24.8257
676
root 8.67436 15.4215 9.3909 177.5 4.66257 186.575
lowerback -0.805716 5.35605 2.16582
upperback -3.50921 7.409 -5.28502
thorax -2.20655 3.73658 -6.72865
lowerneck -2.04653 -1.21603 -8.93296
upperneck 16.5442 -3.14901 8.48001
head 5.54325 -1.89481 3.96663
rclavicle 1.53462e-013 -7.63333e-014
rhumerus -42.3899 23.2791 -80.8802
rradius 68.672
rwrist 8.06043
rhand -2.25258 -60.8128
rfingers 7.12502
rthumb -156.569 90.5938
lclavicle 1.53462e-013 -7.63333e-014
lhumerus -64.3901 13.7239 39.4871
lradius 42.4724
lwrist -9.12506
lhand -2.61835 -25.3665
lfingers 7.12502
lthumb 23.0802 3.27123
rfemur 26.5063 0.869833 34.4301
rtibia 8.56033
rfoot 5.46762 -23.1402
rtoes 7.46
lfemur -23.1051 -24.5925 -9.21693
ltibia 27.398
lfoot -20.6626 22.5917
ltoes -25.4252
677
root 8.64117 15.4451 9.28076 177.561 4.6537 186.666
lowerback -0.874268 5.3727 2.37711
upperback -3.74871 7.44667 -5.37777
thorax -2.37535 3.74871 -6.95413
lowerneck -1.60792 -1.18484 -8.77083
upperneck 16.5869 -3.17313 8.37374
head 5.47912 -1.9275 3.90627
rclavicle -6.04305e-014 -6.04305e-014
rhumerus -43.004 23.3358 -81.496
rradius 68.61
rwrist 8.41661
rhand -3.45229 -59.1662
rfingers 7.12502
rthumb -157.72 92.0982
lclavicle -6.04305e-014 -6.04305e-014
lhumerus -64.4487 13.1929 39.5257
lradius 42.5872
lwrist -8.96861
lhand -2.77888 -26.0078
lfingers 7.12502
lthumb 22.9262 2.6491
rfemur 26.2865 1.06578 34.4298
rtibia 9.27708
rfoot 5.39642 -23.9963
rtoes 12.307
lfemur -22.6766 -24.3705 -9.52815
ltibia 27.4637
lfoot -20.7965 22.44
ltoes -27.7107
678
root 8.60508 15.4694 9.17076 177.658 4.65709 186.749
lowerback -0.888602 5.3671 2.5876
upperback -3.83163 7.44695 -5.44868
thorax -2.41943 3.74365 -7.151
lowerneck -1.90479 -1.19723 -8.96344
upperneck 16.7387 -3.18847 8.56678
head 5.58321 -1.92764 3.99967
rclavicle -6.75868e-015 9.54166e-015
rhumerus -43.1727 23.5572 -81.9287
rradius 68.5946
rwrist 8.61924
rhand -3.24956 -59.1797
rfingers 7.12502
rthumb -157.526 92.108
lclavicle -6.75868e-015 9.54166e-015
lhumerus -64.3515 13.0453 39.7029
lradius 42.7502
lwrist -8.88047
lhand -2.96941 -27.2531
lfingers 7.12502
lthumb 22.7433 1.42644
rfemur 26.0063 1.28548 34.4109
rtibia 10.006
rfoot 6.45442 -24.4038
rtoes 13.5872
lfemur -22.2979 -24.3352 -9.80692
ltibia 27.5478
lfoot -21.1477 22.3209
ltoes -28.9522
679
root 8.57057 15.4888 9.06107 177.747 4.59817 186.859
lowerback -0.988306 5.32957 2.711
upperback -3.81547 7.39506 -5.4398
thorax -2.34037 3.71643 -7.19851
lowerneck -2.29769 -1.20141 -9.34641
upperneck 16.7642 -3.16646 8.91325
head 5.66566 -1.90099 4.17632
rclavicle -6.48038e-014 5.725e-014
rhumerus -43.3145 23.9064 -82.3087
rradius 68.6754
rwrist 8.79502
rhand -1.92502 -60.8925
rfingers 7.12502
rthumb -156.255 90.5546
lclavicle -6.48038e-014 5.725e-014
lhumerus -64.2052 13.1173 40.0093
lradius 42.9223
lwrist -8.92516
lhand -3.36672 -27.7168
lfingers 7.12502
lthumb 22.362 1.00897
rfemur 25.7036 0.947094 34.216
rtibia 10.7202
rfoot 8.22671 -24.1486
rtoes 12.6852
lfemur -21.9319 -24.3875 -10.0282
ltibia 27.6129
lfoot -21.6803 21.987
ltoes -29.2389
680
root 8.5387 15.5071 8.95354 177.842 4.61365 187.017
lowerback -1.19257 5.33688 2.73522
upperback -3.87891 7.3999 -5.3438
thorax -2.30065 3.71755 -7.09203
lowerneck -2.15117 -1.18802 -9.36405
upperneck 16.5828 -3.13197 8.87983
head 5.58083 -1.88583 4.16973
rclavicle -2.74323e-014 5.40694e-014
rhumerus -43.6296 24.1684 -82.6035
rradius 68.6692
rwrist 9.29044
rhand -2.84992 -59.6176
rfingers 7.12502
rthumb -157.142 91.717
lclavicle -2.74323e-014 5.40694e-014
lhumerus -64.2195 13.0985 40.1997
lradius 43.0412
lwrist -9.28422
lhand -3.53285 -27.4304
lfingers 7.12502
lthumb 22.2025 1.31445
rfemur 25.3729 0.658783 34.0671
rtibia 11.431
rfoot 9.68981 -23.8425
rtoes 10.8434
lfemur -21.5492 -24.5597 -10.148
ltibia 27.6588
lfoot -22.2472 21.6729
ltoes -29.5093
681
root 8.5057 15.5284 8.84832 178.008 4.54906 187.199
lowerback -1.50948 5.33502 2.68473
upperback -3.84404 7.38381 -5.17477
thorax -2.11643 3.71284 -6.84711
lowerneck -2.21072 -1.237 -9.36463
upperneck 16.3916 -3.1201 8.67109
head 5.53017 -1.87802 4.10131
rclavicle 3.26007e-014 6.36111e-015
rhumerus -43.6742 24.459 -82.639
rradius 68.6089
rwrist 9.61771
rhand -3.50322 -58.7389
rfingers 7.12502
rthumb -157.769 92.5196
lclavicle 3.26007e-014 6.36111e-015
lhumerus -64.1371 13.1463 40.6417
lradius 43.2204
lwrist -9.58704
lhand -3.70344 -27.0153
lfingers 7.12502
lthumb 22.0387 1.74897
rfemur 24.9011 0.285994 33.8852
rtibia 12.2578
rfoot 10.6501 -23.5135
rtoes 9.89908
lfemur -21.2578 -24.7466 -10.2123
ltibia 27.6673
lfoot -22.7499 21.3589
ltoes -30.0509
682
root 8.47291 15.5456 8.74015 178.172 4.41705 187.323
lowerback -1.31996 5.28142 3.04477
upperback -4.09165 7.33533 -5.37415
thorax -2.42031 3.67438 -7.30099
lowerneck -2.32747 -1.21872 -9.29504
upperneck 16.4713 -3.1381 8.90352
head 5.57693 -1.86952 4.16346
rclavicle -3.57812e-015 5.725e-014
rhumerus -44.2411 24.4943 -83.407
rradius 68.6857
rwrist 9.62263
rhand -3.64791 -58.9925
rfingers 7.12502
rthumb -157.908 92.2496
lclavicle -3.57812e-015 5.725e-014
lhumerus -64.0124 12.5848 40.8751
lradius 43.5106
lwrist -9.44085
lhand -4.13975 -27.3811
lfingers 7.12502
lthumb 21.6198 1.43195
rfemur 24.3552 -0.130676 33.6232
rtibia 13.3129
rfoot 11.532 -23.3379
rtoes 10.9104
lfemur -20.9513 -24.9105 -10.3526
ltibia 27.6244
lfoot -23.2889 21.0381
ltoes -30.5013
683
root 8.44177 15.5609 8.63287 178.206 4.6192 187.288
lowerback -1.25528 5.3339 3.04746
upperback -4.09778 7.41172 -5.4614
thorax -2.44048 3.71378 -7.40058
lowerneck -2.58525 -1.26986 -9.52106
upperneck 16.3104 -3.19658 9.31863
head 5.58425 -1.86853 4.33009
rclavicle 4.69132e-014 -4.13472e-014
rhumerus -44.4456 24.5794 -83.8078
rradius 68.8314
rwrist 9.40617
rhand -1.78711 -60.3668
rfingers 7.12502
rthumb -156.122 91.0975
lclavicle 4.69132e-014 -4.13472e-014
lhumerus -63.7382 12.4553 41.1989
lradius 43.6677
lwrist -9.45449
lhand -4.49927 -28.2997
lfingers 7.12502
lthumb 21.2745 0.552677
rfemur 23.9293 -0.207685 33.1942
rtibia 14.4752
rfoot 12.266 -23.239
rtoes 12.5944
lfemur -20.3702 -25.0133 -10.7131
ltibia 27.5151
lfoot -23.9244 20.9199
ltoes -30.7591
